<svg width="33" height="34" viewBox="0 0 33 34" fill="none" xmlns="http://www.w3.org/2000/svg">
<g clip-path="url(#clip0_244_151)">
<path d="M32.4062 12.0966C32.4062 11.2939 32.1427 10.5089 31.647 9.87939C31.0163 9.07946 30.0778 8.61588 29.0887 8.61588H22.0896C21.9388 8.04499 21.5909 7.56035 21.1247 7.25057L21.1163 2.8133L21.1152 2.80507C21.0973 1.90553 20.6217 1.08568 19.8677 0.658619C19.5144 0.458338 19.1232 0.357666 18.7351 0.357666C18.3112 0.357666 17.8851 0.479322 17.5086 0.717787L17.5076 0.716127L13.3843 3.20888L13.3706 3.21885C12.3772 3.8683 11.7424 4.97808 11.6591 6.20175L11.657 6.24319V8.61814C10.3377 8.62478 9.06805 9.14036 8.08941 10.0675L1.20739 16.5893C0.426092 17.33 0 18.3706 0 19.4388C0 19.8266 0.0558881 20.22 0.172918 20.6017L3.44943 31.4035C3.85331 32.7368 5.03227 33.6423 6.36631 33.6423H20.9296C22.5251 33.6423 24.0595 32.9978 25.2153 31.8439L29.4556 27.6063C30.0072 27.0542 30.3815 26.3373 30.526 25.5517L30.5302 25.5263L32.3556 12.7063H32.3535C32.3873 12.5043 32.4062 12.3002 32.4062 12.0966ZM13.861 6.34439C13.899 5.86865 14.1468 5.4394 14.5317 5.18381L18.6266 2.70765L18.6434 2.69709C18.6719 2.67883 18.7014 2.66887 18.7351 2.66887C18.7636 2.66887 18.791 2.67558 18.8184 2.69218H18.8195C18.8754 2.72425 18.9102 2.78508 18.9123 2.84923L18.9217 7.12606C18.3512 7.4209 17.9178 7.96085 17.7459 8.61588H15.4607V10.9277H29.0886C29.2552 10.9277 29.4176 10.967 29.5642 11.0394L23.6376 16.8077C23.007 17.4073 22.1845 17.7382 21.3345 17.7382H15.5071C15.3331 16.7568 14.7035 15.9458 13.8567 15.5514L13.861 6.34439ZM9.56579 11.783C10.1395 11.2393 10.8839 10.9382 11.6559 10.9289L11.6538 15.5044C10.7522 15.8773 10.0762 16.7159 9.89479 17.7382H3.28177L9.56579 11.783ZM3.09511 22.6153L2.27148 19.9013C2.22932 19.7585 2.20825 19.6159 2.20717 19.472H6.29776L6.6774 22.6153H3.09511ZM3.5338 24.0597H6.85145L7.18995 26.8739H4.38801L3.5338 24.0597ZM6.36631 31.3311C5.993 31.3311 5.66185 31.0761 5.54906 30.7031L4.82562 28.3199H7.36394L7.72674 31.3311H6.36631ZM11.9575 31.3311H9.11451L8.75171 28.3199H11.9575V31.3311ZM11.9575 26.8739H8.57772L8.23923 24.0597H11.9575V26.8739ZM11.9575 22.6153H8.06517L7.68553 19.472H11.9575L11.9575 22.6153ZM12.5829 18.4131C12.1642 18.4131 11.8246 18.0558 11.8246 17.6182C11.8246 17.1784 12.1642 16.8232 12.5829 16.8232C13.0004 16.8232 13.34 17.1784 13.34 17.6182C13.34 18.0558 13.0005 18.4131 12.5829 18.4131ZM16.8085 31.3311H13.3348V28.3199H16.8802L16.8085 31.3311ZM16.9149 26.8739H13.3348V24.0597H16.9825L16.9149 26.8739ZM17.0162 22.6153H13.3348V19.472H17.0921L17.0162 22.6153ZM21.3008 31.3117C21.1775 31.3234 21.053 31.3311 20.9297 31.3311H18.1858L18.2575 28.3199H21.4643L21.3008 31.3117ZM21.5434 26.8739H18.2922L18.3597 24.0597H21.6973L21.5434 26.8739ZM21.7764 22.6153H18.3945L18.4693 19.472H21.3346C21.5424 19.472 21.7469 19.4537 21.9516 19.4283L21.7764 22.6153ZM25.2723 28.5944L23.6957 30.1693C23.4795 30.3851 23.2402 30.5705 22.9871 30.7298L23.1421 27.9062L25.4547 25.9567L25.2723 28.5944ZM25.5918 23.9873L23.2496 25.9617L23.3962 23.2759L25.7795 21.2655L25.5918 23.9873ZM25.9156 19.2972L23.5027 21.3319L23.6356 18.8923C24.0342 18.6803 24.4086 18.4148 24.745 18.0956L26.0896 16.7868L25.9156 19.2972ZM28.3589 25.1229C28.3009 25.4322 28.1533 25.7144 27.936 25.9334L26.755 27.1117L26.9205 24.7196L28.6215 23.2858L28.3589 25.1229ZM28.921 21.1813L27.0576 22.7514L27.2454 20.0291L29.3354 18.2682L28.921 21.1813ZM29.6349 16.161L27.3824 18.0613L27.5701 15.3462L30.1021 12.8811L29.6349 16.161Z" fill="#41250B"/>
</g>
<defs>
<clipPath id="clip0_244_151">
<rect width="32.4062" height="34" fill="white"/>
</clipPath>
</defs>
</svg>
